<mxfile host="app.diagrams.net" modified="2024-02-02T11:57:17.421Z" agent="Mozilla/5.0 (Macintosh; Intel Mac OS X 10_15_7) AppleWebKit/537.36 (KHTML, like Gecko) Chrome/121.0.0.0 Safari/537.36" version="23.1.1" etag="Wmr_MnPll6T_GZVgmlE4" type="github">
  <diagram name="Page-1" id="7BQMIDeNA1ITla5zD3vT">
    <mxGraphModel>
      <root>
        <mxCell id="0" />
        <mxCell id="1" parent="0" />
      </root>
    </mxGraphModel>
  </diagram>
</mxfile>
